# xmcd
#
# Track frame offsets:
#	150
#	15932
#	30565
#	47548
#	67282
#	83836
#	102687
#	125707
#	141291
#	161021
#	177288
#	198354
#
# Disc length: 2960 seconds
# Revision: 0
# Processed by: cddbd v1.5.2PL0 Copyright (c) Steve Scherf et al.
# Submitted via: dBpowerAMP V12.0
#
DISCID=a60b8e0c
DTITLE=The Texettes - Eldorado
DYEAR=2013
DGENRE=Country
TTITLE0=Eldorado
TTITLE1=I Will You Won't
TTITLE2=Fearless
TTITLE3=Redwood Hollow
TTITLE4=Jackson
TTITLE5=Rafaella
TTITLE6=Dakota
TTITLE7=The Lady And The Tramp
TTITLE8=White Horse Plains
TTITLE9=Just One Beer
TTITLE10=After The Fire
TTITLE11=It's Getting Late
EXTD=
EXTT0=
EXTT1=
EXTT2=
EXTT3=
EXTT4=
EXTT5=
EXTT6=
EXTT7=
EXTT8=
EXTT9=
EXTT10=
EXTT11=
PLAYORDER=
